<svg viewBox="60 0 70 75" width="140" height="150" xmlns="http://www.w3.org/2000/svg">
  <g fill="#e20074">
    <!-- left dot -->
    <path d="m69.625 43.95v-10.572h10.571v10.572z"/>
    <!-- T glyph -->
    <path d="m98.867 8.999v45.254c0 3.274.173 5.292.52 6.052.6 1.783 2.619 2.704 6.056 2.763h2.271v2.894h-26.638v-2.894h2.271c2.492 0 4.196-.453 5.11-1.359.632-.556 1.025-1.389 1.184-2.5.188-1.14.284-2.792.284-4.955v-45.255h-1.988c-3.122 0-5.93.848-8.421 2.543-3.754 2.572-5.931 7.732-6.53 15.479l-2.839-.132.521-20.786h47.74l.379 20.786-2.887.132c-.662-4.912-1.766-8.727-3.312-11.445-1.388-2.427-3.122-4.151-5.204-5.174-1.861-.906-4.212-1.374-7.05-1.403z"/>
    <!-- right dot -->
    <path d="m107.709 43.95v-10.572h10.572v10.572z"/>
  </g>
</svg>